<svg width="53" height="15" viewBox="0 0 53 15" fill="none" xmlns="http://www.w3.org/2000/svg">
<path d="M50.8679 10.2588H49.3498C49.0355 10.2588 48.7735 10.0524 48.7735 9.79448C48.7735 9.48494 49.0355 9.33017 49.3498 9.33017H52.124L52.7527 7.93833H49.3498C47.9365 7.93833 47.1507 8.76269 47.1507 9.84607C47.1507 10.9294 47.9365 11.6506 49.1402 11.6506H50.6583C50.9726 11.6506 51.2346 11.857 51.2346 12.1149C51.2346 12.3729 51.025 12.5792 50.6583 12.5792H47.3078V13.9711H50.6583C52.0716 13.9711 52.8574 13.1467 52.8574 12.0117C52.8574 10.8768 52.124 10.2588 50.8679 10.2588ZM44.7431 10.2588H43.225C42.9107 10.2588 42.6488 10.0524 42.6488 9.79448C42.6488 9.48494 42.9107 9.33017 43.225 9.33017H45.9993L46.6279 7.93833H43.225C41.8117 7.93833 41.027 8.76269 41.027 9.84607C41.027 10.9294 41.8117 11.6506 43.0166 11.6506H44.5347C44.849 11.6506 45.1109 11.857 45.1109 12.1149C45.1109 12.3729 44.9014 12.5792 44.5347 12.5792H41.1842V13.9711H44.5347C45.948 13.9711 46.7327 13.1467 46.7327 12.0117C46.7851 10.8779 46.0528 10.2588 44.7431 10.2588ZM35.0594 14.0216H40.2947V12.6297H36.7347V11.6506H40.2423V10.2588H36.7347V9.27966H40.2947V7.88781H35.0594V14.0227V14.0216ZM31.8137 10.5167H30.0861V9.27966H31.8137C32.2852 9.27966 32.5471 9.58919 32.5471 9.89873C32.5471 10.2599 32.2852 10.5178 31.8137 10.5178M34.2213 9.84714C34.2213 8.66166 33.3831 7.88781 32.0222 7.88781H28.4098V14.0227H30.085V11.9096H30.7136L32.5984 14.0227H34.588L32.546 11.8065C33.5927 11.5485 34.2213 10.8273 34.2213 9.84714ZM25.2699 10.621H23.4899V9.28073H25.2699C25.7414 9.28073 26.0033 9.59027 26.0033 9.95139C26.0033 10.3125 25.7938 10.6221 25.2699 10.6221M25.4794 7.88996H21.867V14.0248H23.5423V12.0139H25.4794C26.8928 12.0139 27.7309 11.138 27.7309 9.95139C27.6785 8.71432 26.8415 7.88889 25.4794 7.88889M21.5538 7.88889H19.4082L17.8377 9.74504L16.2149 7.88889H14.0158L16.79 10.9305L13.9634 14.0237H16.109L17.7842 12.0644L19.4595 14.0237H21.6575L18.8309 10.8789L21.5527 7.88889H21.5538ZM8.51964 14.0237H13.7538V12.6319H10.1414V11.6528H13.6491V10.2609H10.1414V9.28181H13.7538V7.88996H8.51964V14.0248V14.0237ZM50.2392 3.76281L47.6745 0.0515895H45.5802V6.13485H47.2554V2.26779L49.8725 6.13377H51.8621V0.0515895H50.2392V3.76388V3.76281ZM40.6069 3.55645L41.4963 1.49395L42.3858 3.55645H40.6058H40.6069ZM40.3973 0.0505147L37.6754 6.18536H39.5079L40.0317 4.94829H42.9107L43.4346 6.18536H45.3194L42.5451 0.0515895H40.3984L40.3973 0.0505147ZM34.9536 3.14373V3.04055C34.9536 2.11302 35.4774 1.49395 36.5241 1.49395H38.3565V0H36.3669C34.325 0 33.2783 1.28866 33.2783 2.99004V3.09322C33.2783 5.00095 34.4821 6.08326 36.3145 6.08326H36.8908L37.5707 4.69142H36.5764C35.5822 4.74301 34.9536 4.17552 34.9536 3.14481M30.766 6.13485H32.4413V0.0515895H30.766V6.13485ZM27.5203 2.62891H25.7927V1.39184H27.5203C27.9918 1.39184 28.2537 1.70138 28.2537 2.01091C28.2537 2.37204 27.9918 2.62999 27.5203 2.62999M29.9279 2.01091C29.9279 0.825431 29.0897 0.0515895 27.7298 0.0515895H24.1174V6.18644H25.7927V4.02183H26.4213L28.3061 6.13592H30.348L28.2548 3.91972C29.3014 3.71337 29.93 2.9406 29.93 2.01199M17.7853 6.13592H23.0195V4.74408H19.4595V3.76496H22.9147V2.37312H19.4595V1.39399H23.0195V0.0515895H17.7853V6.13485V6.13592ZM12.4988 3.86706L11.0843 0.0515895H8.51964V6.13485H10.1425V1.75297L11.7654 6.13485H13.2311L14.8539 1.75297V6.13485H16.5292V0.0515895H13.9121L12.4988 3.86599V3.86706ZM3.495 3.55752L4.38446 1.49502L5.27392 3.55752H3.49391H3.495ZM3.28436 0.0515895L0.5625 6.13485H2.3949L2.91876 4.89778H5.79778L6.32163 6.13485H8.20642L5.43108 0.0515895H3.28436Z" fill="white"/>
</svg>
