<svg width="57" height="23" viewBox="0 0 57 23" fill="none" xmlns="http://www.w3.org/2000/svg">
<rect width="55.7812" height="22.1354" transform="translate(0.753296)" fill="white"/>
<path d="M4.58457 7.15137H2.14795V15.6176H4.58457C5.86867 15.6176 6.81385 15.3096 7.62641 14.6361C8.60106 13.831 9.1768 12.6292 9.1768 11.3845C9.16206 8.89411 7.28644 7.15137 4.58457 7.15137ZM6.53387 13.5084C6.01708 13.9772 5.33819 14.1819 4.26039 14.1819H3.81727V8.58712H4.26039C5.33819 8.58712 5.98761 8.77716 6.53387 9.27524C7.10961 9.78793 7.44958 10.5638 7.44958 11.3845C7.44958 12.1906 7.10961 12.9957 6.53387 13.5084Z" fill="#2C3E50"/>
<path d="M11.5965 7.15137H9.92822V15.6176H11.5965V7.15137Z" fill="#2C3E50"/>
<path d="M15.6573 10.4037C14.6531 10.0372 14.3732 9.78871 14.3732 9.33449C14.3732 8.80717 14.89 8.39681 15.6131 8.39681C16.1151 8.39681 16.514 8.60147 16.9561 9.08493L17.8276 7.95721C17.1192 7.34218 16.2625 7.01953 15.3173 7.01953C13.8111 7.01953 12.6596 8.05954 12.6596 9.43682C12.6596 10.6084 13.1912 11.1942 14.7563 11.7507C15.4057 11.9846 15.7457 12.1319 15.9078 12.2342C16.2477 12.4535 16.4098 12.7615 16.4098 13.1134C16.4098 13.8015 15.8636 14.2996 15.1257 14.2996C14.329 14.2996 13.6932 13.9038 13.3101 13.1719L12.2323 14.1973C12.9996 15.3104 13.9153 15.8084 15.1847 15.8084C16.9119 15.8084 18.1223 14.6661 18.1223 13.0257C18.1223 11.6933 17.5613 11.0918 15.6562 10.4037H15.6573Z" fill="#2C3E50"/>
<path d="M18.6401 11.3841C18.6401 13.8744 20.6042 15.7926 23.1429 15.7926C23.8512 15.7926 24.4712 15.6464 25.2248 15.2945V13.3461C24.5607 14.005 23.9702 14.2692 23.2166 14.2692C21.5483 14.2692 20.3526 13.0683 20.3526 11.3548C20.3526 9.64133 21.5778 8.45513 23.1429 8.45513C23.9397 8.45513 24.5312 8.73393 25.2248 9.40743V7.45898C24.5017 7.09247 23.8965 6.94629 23.1724 6.94629C20.6621 6.96091 18.6401 8.92397 18.6401 11.3841Z" fill="#2C3E50"/>
<path d="M38.4088 12.8349L36.1353 7.15137H34.3197L37.951 15.8379H38.8372L42.5284 7.15137H40.7276L38.4088 12.8349Z" fill="#2C3E50"/>
<path d="M43.281 15.6176H47.9911V14.1829H44.9345V11.8972H47.8732V10.4625H44.9345V8.58712H47.9911V7.15137H43.281V15.6176Z" fill="#2C3E50"/>
<path d="M54.5759 9.65636C54.5759 8.07443 53.4833 7.15137 51.5635 7.15137H49.0974V15.6176H50.7657V12.2198H50.9867L53.2897 15.6176H55.3421L52.655 12.058C53.8801 11.7949 54.5748 10.9449 54.5748 9.65636H54.5759ZM51.2393 11.0483H50.752V8.48479H51.2688C52.3024 8.48479 52.8634 8.90977 52.8634 9.74408C52.8634 10.5784 52.3024 11.0472 51.2393 11.0472V11.0483Z" fill="#2C3E50"/>
<path d="M30.3032 15.91C32.8063 15.91 34.8354 13.897 34.8354 11.4137C34.8354 8.93052 32.8063 6.91748 30.3032 6.91748C27.8001 6.91748 25.771 8.93052 25.771 11.4137C25.771 13.897 27.8001 15.91 30.3032 15.91Z" fill="url(#paint0_linear_79_814)"/>
<path opacity="0.65" d="M30.3032 15.91C32.8063 15.91 34.8354 13.897 34.8354 11.4137C34.8354 8.93052 32.8063 6.91748 30.3032 6.91748C27.8001 6.91748 25.771 8.93052 25.771 11.4137C25.771 13.897 27.8001 15.91 30.3032 15.91Z" fill="url(#paint1_linear_79_814)"/>
<defs>
<linearGradient id="paint0_linear_79_814" x1="32.6262" y1="15.0224" x2="29.5208" y2="10.1205" gradientUnits="userSpaceOnUse">
<stop stop-color="#F89F20"/>
<stop offset="0.25" stop-color="#F79A20"/>
<stop offset="0.53" stop-color="#F68D20"/>
<stop offset="0.62" stop-color="#F58720"/>
<stop offset="0.72" stop-color="#F48120"/>
<stop offset="1" stop-color="#F37521"/>
</linearGradient>
<linearGradient id="paint1_linear_79_814" x1="32.1304" y1="14.9556" x2="27.597" y2="6.02464" gradientUnits="userSpaceOnUse">
<stop stop-color="#F58720"/>
<stop offset="0.36" stop-color="#E16F27"/>
<stop offset="0.7" stop-color="#D4602C"/>
<stop offset="0.98" stop-color="#D05B2E"/>
</linearGradient>
</defs>
</svg>
