<svg width="57" height="23" viewBox="0 0 57 23" fill="none" xmlns="http://www.w3.org/2000/svg">
<rect width="55.7812" height="22.1354" transform="translate(0.78125)" fill="white"/>
<path d="M34.4418 2.0752C39.573 2.0752 43.7326 6.15269 43.7328 11.1826C43.7328 16.2127 39.5732 20.291 34.4418 20.291C32.141 20.291 30.0372 19.4691 28.4144 18.1113C26.7918 19.4688 24.6885 20.291 22.3881 20.291C17.2568 20.2909 13.097 16.2126 13.097 11.1826C13.0973 6.15276 17.2569 2.07531 22.3881 2.0752C24.6883 2.0752 26.7918 2.89663 28.4144 4.25391C30.0371 2.89628 32.1412 2.0752 34.4418 2.0752Z" fill="#ED0006"/>
<path d="M34.4413 2.0752C39.5726 2.0752 43.7331 6.15269 43.7333 11.1826C43.7333 16.2127 39.5727 20.291 34.4413 20.291C32.1409 20.2909 30.0376 19.4689 28.415 18.1113C30.4117 16.4408 31.6796 13.9575 31.6796 11.1826C31.6795 8.40767 30.4118 5.92436 28.415 4.25391C30.0375 2.89654 32.1411 2.07528 34.4413 2.0752Z" fill="#F9A000"/>
<path d="M28.4142 4.25342C30.4116 5.92394 31.6799 8.40767 31.6799 11.1831C31.6799 13.9583 30.4113 16.4413 28.4142 18.1118C26.4177 16.4413 25.1506 13.9579 25.1506 11.1831C25.1506 8.4081 26.4175 5.92394 28.4142 4.25342Z" fill="#FF5E00"/>
</svg>
