<svg width="56" height="23" viewBox="0 0 56 23" fill="none" xmlns="http://www.w3.org/2000/svg">
<rect width="54.8958" height="22.1354" transform="translate(0.857422)" fill="white"/>
<path d="M22.0763 8.16377H19.3423C19.1553 8.16377 18.9961 8.29615 18.9669 8.47633L17.8611 15.3099C17.8418 15.4311 17.9268 15.5446 18.0511 15.5637C18.0628 15.5654 18.0747 15.5664 18.0867 15.5664H19.3919C19.5791 15.5664 19.7383 15.4336 19.7674 15.2535L20.0657 13.4103C20.0945 13.2303 20.2537 13.0975 20.4407 13.0973H21.3062C23.1073 13.0973 24.1466 12.2479 24.418 10.5644C24.5404 9.82794 24.4231 9.24926 24.0695 8.844C23.6808 8.39906 22.9916 8.16357 22.0767 8.16357L22.0763 8.16377ZM22.3916 10.6596C22.2421 11.6158 21.4925 11.6158 20.7677 11.6158H20.3551L20.6445 9.83006C20.6621 9.72215 20.7574 9.64256 20.8695 9.64256H21.0585C21.5522 9.64256 22.0179 9.64256 22.2585 9.91697C22.4021 10.0806 22.446 10.3238 22.3912 10.6596H22.3916ZM30.2487 10.6288H28.9395C28.8274 10.6288 28.732 10.7084 28.7146 10.8163L28.6566 11.1732L28.5651 11.0439C28.2816 10.6429 27.6496 10.5089 27.0187 10.5089C25.572 10.5089 24.3361 11.5771 24.0955 13.0754C23.9704 13.8226 24.1483 14.5374 24.5833 15.0357C24.9822 15.494 25.5532 15.6849 26.2323 15.6849C27.3981 15.6849 28.0444 14.9544 28.0444 14.9544L27.986 15.309C27.9661 15.4302 28.0509 15.5441 28.175 15.5633C28.1869 15.5653 28.1988 15.566 28.2106 15.566H29.3899C29.5771 15.566 29.7363 15.4333 29.7653 15.2531L30.4729 10.8853C30.4929 10.7647 30.4084 10.651 30.2847 10.6317C30.2728 10.6298 30.2608 10.6288 30.2487 10.6288ZM28.4237 13.1125C28.2974 13.8415 27.7037 14.331 26.9465 14.331C26.5664 14.331 26.2625 14.2121 26.0674 13.9868C25.8738 13.7631 25.8003 13.4448 25.862 13.0902C25.98 12.3674 26.5836 11.8619 27.3291 11.8619C27.701 11.8619 28.003 11.9823 28.2021 12.2095C28.4016 12.4391 28.4807 12.7593 28.4235 13.1124L28.4237 13.1125ZM37.2215 10.6288H35.9058C35.7799 10.629 35.6621 10.6899 35.5913 10.7913L33.7768 13.3966L33.0076 10.893C32.9591 10.7361 32.8111 10.6288 32.643 10.6288H31.3501C31.2241 10.6284 31.1219 10.7277 31.1215 10.8504C31.1215 10.8751 31.1257 10.8994 31.1338 10.9227L32.5829 15.0679L31.2206 16.9425C31.1476 17.0425 31.1717 17.1813 31.2743 17.2522C31.3129 17.2789 31.3592 17.2932 31.4064 17.2932H32.7205C32.8451 17.2932 32.9617 17.2341 33.0327 17.1342L37.4085 10.9774C37.4803 10.8766 37.4546 10.7383 37.3512 10.6683C37.313 10.6425 37.2678 10.6286 37.2213 10.6286L37.2215 10.6288Z" fill="#253B80"/>
<path d="M41.5774 8.16396H38.8431C38.6562 8.16396 38.4971 8.29654 38.468 8.47652L37.3623 15.3101C37.3427 15.4311 37.4274 15.5446 37.5513 15.5637C37.5632 15.5654 37.575 15.5664 37.5869 15.5664H38.9902C39.121 15.5664 39.2321 15.4733 39.2525 15.3475L39.5662 13.4105C39.5951 13.2305 39.7543 13.0977 39.9413 13.0975H40.8064C42.6078 13.0975 43.6467 12.2481 43.9186 10.5646C44.0413 9.82813 43.9233 9.24945 43.5696 8.8442C43.1815 8.39925 42.4926 8.16377 41.5776 8.16377L41.5774 8.16396ZM41.8928 10.6598C41.7437 11.616 40.994 11.616 40.2689 11.616H39.8567L40.1465 9.83025C40.1637 9.72234 40.259 9.64275 40.3711 9.64275H40.5601C41.0533 9.64275 41.5195 9.64275 41.7601 9.91716C41.9036 10.0808 41.9471 10.324 41.8924 10.6598H41.8928ZM49.7495 10.629H48.4411C48.329 10.6286 48.2335 10.7084 48.2165 10.8165L48.1586 11.1734L48.0667 11.0441C47.7832 10.6431 47.1515 10.5091 46.5207 10.5091C45.0739 10.5091 43.8387 11.5773 43.5979 13.0755C43.4731 13.8228 43.6503 14.5376 44.0852 15.0359C44.485 15.4941 45.0551 15.6851 45.7342 15.6851C46.9 15.6851 47.5463 14.9546 47.5463 14.9546L47.488 15.3092C47.468 15.4304 47.5528 15.5442 47.677 15.5635C47.6891 15.5654 47.7013 15.5664 47.7134 15.5662H48.8922C49.0793 15.5662 49.2382 15.4334 49.2673 15.2533L49.9752 10.8855C49.9944 10.7641 49.909 10.6504 49.7845 10.6317C49.7728 10.63 49.7611 10.629 49.7495 10.6292V10.629ZM47.9245 13.1127C47.799 13.8417 47.2045 14.3312 46.4473 14.3312C46.0679 14.3312 45.7633 14.2123 45.5682 13.987C45.3746 13.7633 45.3019 13.445 45.3627 13.0904C45.4816 12.3676 46.0843 11.8621 46.8299 11.8621C47.2017 11.8621 47.5038 11.9825 47.7029 12.2097C47.9032 12.4392 47.9822 12.7595 47.9243 13.1125L47.9245 13.1127ZM51.2929 8.35146L50.1708 15.3101C50.1512 15.4311 50.2358 15.5446 50.3598 15.5637C50.3716 15.5654 50.3835 15.5664 50.3953 15.5664H51.5234C51.7108 15.5664 51.87 15.4338 51.8988 15.2535L53.0053 8.42025C53.0249 8.29904 52.9401 8.18535 52.8158 8.16627C52.8041 8.16454 52.7924 8.16357 52.7806 8.16357H51.5173C51.4052 8.16396 51.3101 8.24355 51.2927 8.35146H51.2929Z" fill="#179BD7"/>
<path d="M6.50725 16.8944L6.71641 15.5998L6.25064 15.5892H4.02673L5.57214 6.03755C5.58163 5.97724 5.635 5.93272 5.69767 5.93311H9.44761C10.6925 5.93311 11.5515 6.18555 12.0001 6.68407C12.2104 6.91781 12.3443 7.16216 12.4091 7.43098C12.4771 7.7131 12.4783 8.05013 12.4119 8.46136L12.4071 8.49142V8.75484L12.6175 8.87104C12.778 8.95024 12.9223 9.05758 13.0433 9.18746C13.2232 9.38729 13.3395 9.64146 13.3887 9.94266C13.4395 10.2525 13.4227 10.6212 13.3395 11.0384C13.2436 11.5184 13.0884 11.9365 12.879 12.2786C12.6942 12.5852 12.4457 12.8505 12.1495 13.0579C11.8714 13.2504 11.5406 13.3965 11.167 13.4901C10.8048 13.582 10.3918 13.6285 9.93889 13.6285H9.64708C9.43831 13.6285 9.23567 13.7017 9.07653 13.8331C8.91758 13.9659 8.81221 14.1491 8.77919 14.3505L8.75725 14.4671L8.38795 16.7487L8.37114 16.8325C8.36679 16.8591 8.35908 16.8722 8.34801 16.8813C8.33714 16.8899 8.32369 16.8948 8.30966 16.895H6.50784L6.50725 16.8944Z" fill="#253B80"/>
<path d="M12.8163 8.52148C12.8051 8.59124 12.7924 8.66254 12.778 8.73577C12.2836 11.2106 10.5917 12.0655 8.43082 12.0655H7.33063C7.06631 12.0655 6.8437 12.2526 6.80258 12.5066L6.23934 15.9887L6.0798 16.9757C6.05548 17.1254 6.16026 17.2659 6.31387 17.2896C6.32831 17.2919 6.34294 17.2929 6.35776 17.2929H8.30904C8.54015 17.2929 8.73646 17.1293 8.77284 16.9071L8.79201 16.8106L9.15934 14.538L9.18286 14.4133C9.21884 14.1904 9.41555 14.0268 9.64666 14.0268H9.93846C11.829 14.0268 13.309 13.2787 13.7416 11.1137C13.9223 10.2094 13.8288 9.45416 13.3505 8.92308C13.1989 8.7587 13.018 8.62285 12.8163 8.52168V8.52148Z" fill="#179BD7"/>
<path d="M12.2992 8.32064C12.1412 8.27613 11.9807 8.24144 11.8182 8.21658C11.4973 8.1686 11.1729 8.14547 10.8483 8.14759H7.90908C7.67797 8.14759 7.48126 8.31158 7.44568 8.53415L6.82036 12.3942L6.80237 12.5067C6.8427 12.2527 7.06689 12.0654 7.33042 12.0656H8.43061C10.5914 12.0656 12.2831 11.2102 12.7778 8.73591C12.7926 8.66269 12.8051 8.59139 12.8161 8.52163C12.6857 8.45495 12.5496 8.39907 12.4095 8.35456C12.3727 8.34261 12.3359 8.33143 12.2988 8.32064H12.2992Z" fill="#222D65"/>
<path d="M7.44568 8.53416C7.48087 8.3114 7.67778 8.14722 7.90909 8.14799H10.8483C11.1964 8.14799 11.5214 8.17015 11.8182 8.21698C12.0188 8.24781 12.2169 8.29367 12.4103 8.35456C12.5562 8.40178 12.6918 8.45747 12.8169 8.52164C12.964 7.60707 12.8157 6.98445 12.3085 6.42061C11.7488 5.79992 10.7393 5.53418 9.44777 5.53418H5.69784C5.43391 5.53418 5.20893 5.72129 5.1682 5.97566L3.60619 15.6258C3.57832 15.7971 3.69832 15.958 3.87407 15.9852C3.89068 15.9877 3.90729 15.989 3.92409 15.989H6.23913L6.82036 12.3944L7.44568 8.53436V8.53416Z" fill="#253B80"/>
</svg>
