<svg width="56" height="23" viewBox="0 0 56 23" fill="none" xmlns="http://www.w3.org/2000/svg">
<rect width="55.7812" height="22.1354" fill="white"/>
<path fill-rule="evenodd" clip-rule="evenodd" d="M16.6156 17.8936H12.7526L9.85578 6.60737C9.71828 6.08821 9.42634 5.62923 8.9969 5.41291C7.92519 4.86929 6.74424 4.43665 5.45593 4.21845V3.78393H11.679C12.5379 3.78393 13.182 4.43665 13.2894 5.19471L14.7924 13.3359L18.6536 3.78393H22.4093L16.6156 17.8936ZM24.5564 17.8936H20.9081L23.9123 3.78393H27.5606L24.5564 17.8936ZM32.2807 7.69273C32.388 6.93279 33.0322 6.49826 33.7837 6.49826C34.9646 6.38916 36.2511 6.60737 37.3247 7.14911L37.9688 4.11122C36.8952 3.6767 35.7143 3.4585 34.6426 3.4585C31.1016 3.4585 28.525 5.4129 28.525 8.12537C28.525 10.1889 30.3501 11.2724 31.6384 11.9251C33.0322 12.5759 33.569 13.0104 33.4616 13.6613C33.4616 14.6375 32.388 15.0721 31.3163 15.0721C30.028 15.0721 28.7397 14.7466 27.5606 14.203L26.9165 17.2428C28.2048 17.7845 29.5986 18.0027 30.8869 18.0027C34.8573 18.11 37.3247 16.1574 37.3247 13.2268C37.3247 9.53615 32.2807 9.31983 32.2807 7.69273ZM50.0928 17.8936L47.196 3.78393H44.0845C43.4403 3.78393 42.7962 4.21845 42.5815 4.86929L37.2173 17.8936H40.973L41.7226 15.832H46.3372L46.7666 17.8936H50.0928ZM44.6213 7.58369L45.693 12.9014H42.6888L44.6213 7.58369Z" fill="#172B85"/>
</svg>
